<mxfile host="Electron" agent="Mozilla/5.0 (Windows NT 10.0; Win64; x64) AppleWebKit/537.36 (KHTML, like Gecko) draw.io/28.1.2 Chrome/138.0.7204.243 Electron/37.4.0 Safari/537.36" version="28.1.2">
  <diagram id="nU8DA9PspjRZVzjoTJWa" name="PÃ¡gina-1">
    <mxGraphModel dx="-108" dy="432" grid="1" gridSize="10" guides="1" tooltips="1" connect="1" arrows="1" fold="1" page="1" pageScale="1" pageWidth="827" pageHeight="1169" math="0" shadow="0">
      <root>
        <mxCell id="0" />
        <mxCell id="1" parent="0" />
        <mxCell id="Hspl0a5QFtU7OhwK5RxB-1" value="&lt;p style=&quot;margin:0px;margin-top:4px;text-align:center;&quot;&gt;&lt;b&gt;CartItem&lt;/b&gt;&lt;/p&gt;&lt;hr style=&quot;border-style:solid;&quot;&gt;- product: Product&lt;br&gt;- quantity: Integer&lt;br&gt;- subtotal: Double&lt;div style=&quot;height:2px;&quot;&gt;&lt;br&gt;&lt;/div&gt;&lt;div style=&quot;height:2px;&quot;&gt;&lt;br&gt;&lt;/div&gt;&lt;div style=&quot;height:2px;&quot;&gt;&lt;br&gt;&lt;/div&gt;&lt;hr style=&quot;border-style:solid;&quot;&gt;&lt;div style=&quot;height:2px;&quot;&gt;+ calculateSubtotal()&lt;br&gt;+ getters, setters&lt;/div&gt;" style="verticalAlign=top;align=left;overflow=fill;html=1;whiteSpace=wrap;fontSize=11;" parent="1" vertex="1">
          <mxGeometry x="1116" y="498" width="152" height="140" as="geometry" />
        </mxCell>
        <mxCell id="Hspl0a5QFtU7OhwK5RxB-2" value="co.com.poo.shoppingcart" style="shape=folder;fontStyle=1;spacingTop=10;tabWidth=40;tabHeight=14;tabPosition=left;html=1;whiteSpace=wrap;fillColor=#fad7ac;strokeColor=#b46504;align=left;verticalAlign=top;" parent="1" vertex="1">
          <mxGeometry x="870" y="140" width="1160" height="1020" as="geometry" />
        </mxCell>
        <mxCell id="Hspl0a5QFtU7OhwK5RxB-3" value="&lt;font style=&quot;font-size: 11px;&quot;&gt;application&lt;/font&gt;" style="shape=folder;fontStyle=1;spacingTop=10;tabWidth=40;tabHeight=14;tabPosition=left;html=1;whiteSpace=wrap;align=left;verticalAlign=top;" parent="1" vertex="1">
          <mxGeometry x="1173.5" y="195" width="210" height="110" as="geometry" />
        </mxCell>
        <mxCell id="Hspl0a5QFtU7OhwK5RxB-4" value="&lt;p style=&quot;margin:0px;margin-top:4px;text-align:center;&quot;&gt;&lt;b&gt;&lt;font style=&quot;font-size: 11px;&quot;&gt;ShoppingCartApp&lt;/font&gt;&lt;/b&gt;&lt;/p&gt;&lt;hr size=&quot;1&quot; style=&quot;border-style:solid;&quot;&gt;&lt;div style=&quot;height:2px;&quot;&gt;&lt;font style=&quot;font-size: 11px;&quot;&gt;+ main(args:String[]): void&lt;/font&gt;&lt;/div&gt;" style="verticalAlign=top;align=left;overflow=fill;html=1;whiteSpace=wrap;" parent="1" vertex="1">
          <mxGeometry x="1194.25" y="230" width="160" height="60" as="geometry" />
        </mxCell>
        <mxCell id="Hspl0a5QFtU7OhwK5RxB-5" value="&lt;div style=&quot;&quot;&gt;&lt;span style=&quot;font-size: 11px;&quot;&gt;usecase&lt;/span&gt;&lt;/div&gt;" style="shape=folder;fontStyle=1;spacingTop=10;tabWidth=40;tabHeight=14;tabPosition=left;html=1;whiteSpace=wrap;align=left;verticalAlign=top;" parent="1" vertex="1">
          <mxGeometry x="940" y="340" width="677" height="320" as="geometry" />
        </mxCell>
        <mxCell id="Hspl0a5QFtU7OhwK5RxB-6" value="&lt;font style=&quot;font-size: 11px;&quot;&gt;service&lt;/font&gt;" style="shape=folder;fontStyle=1;spacingTop=10;tabWidth=40;tabHeight=14;tabPosition=left;html=1;whiteSpace=wrap;align=left;verticalAlign=top;fillColor=#d5e8d4;strokeColor=#82b366;" parent="1" vertex="1">
          <mxGeometry x="946.5" y="720" width="543.5" height="386" as="geometry" />
        </mxCell>
        <mxCell id="Hspl0a5QFtU7OhwK5RxB-7" value="model" style="shape=folder;fontStyle=1;spacingTop=10;tabWidth=40;tabHeight=14;tabPosition=left;html=1;whiteSpace=wrap;verticalAlign=top;align=left;fontSize=11;" parent="1" vertex="1">
          <mxGeometry x="1720" y="305" width="260" height="805" as="geometry" />
        </mxCell>
        <mxCell id="Hspl0a5QFtU7OhwK5RxB-8" value="&lt;p style=&quot;margin:0px;margin-top:4px;text-align:center;&quot;&gt;&lt;i&gt;&amp;lt;&amp;lt;Interface&amp;gt;&amp;gt;&lt;/i&gt;&lt;br&gt;&lt;b&gt;ProductRepository&lt;/b&gt;&lt;/p&gt;&lt;p style=&quot;margin:0px;margin-left:4px;&quot;&gt;&lt;br&gt;&lt;/p&gt;&lt;hr style=&quot;border-style:solid;&quot;&gt;&lt;p style=&quot;margin:0px;margin-left:4px;&quot;&gt;&lt;font style=&quot;color: light-dark(rgb(0, 0, 0), rgb(255, 255, 255));&quot;&gt;&lt;span style=&quot;&quot; class=&quot;token&quot;&gt;+&lt;/span&gt; &lt;span style=&quot;&quot; class=&quot;token&quot;&gt;loadProducts&lt;/span&gt;&lt;span style=&quot;&quot; class=&quot;token&quot;&gt;(&lt;/span&gt;&lt;span style=&quot;&quot; class=&quot;token&quot;&gt;)&lt;/span&gt;&lt;span style=&quot;&quot; class=&quot;token&quot;&gt;:&lt;/span&gt; &lt;span style=&quot;&quot; class=&quot;token&quot;&gt;List&lt;/span&gt;&lt;span style=&quot;&quot; class=&quot;token generics&quot;&gt;&amp;lt;&lt;/span&gt;&lt;span style=&quot;&quot; class=&quot;token generics&quot;&gt;Product&lt;/span&gt;&lt;span style=&quot;&quot; class=&quot;token generics&quot;&gt;&amp;gt;&lt;/span&gt;&lt;br&gt;&lt;span style=&quot;&quot; class=&quot;token&quot;&gt;+&lt;/span&gt; &lt;span style=&quot;&quot; class=&quot;token&quot;&gt;getProductById&lt;/span&gt;&lt;span style=&quot;&quot; class=&quot;token&quot;&gt;(&lt;/span&gt;id&lt;span style=&quot;&quot; class=&quot;token&quot;&gt;:&lt;/span&gt; &lt;span style=&quot;&quot; class=&quot;token&quot;&gt;String&lt;/span&gt;&lt;span style=&quot;&quot; class=&quot;token&quot;&gt;)&lt;/span&gt;&lt;span style=&quot;&quot; class=&quot;token&quot;&gt;:&lt;/span&gt; &lt;span style=&quot;&quot; class=&quot;token&quot;&gt;Product&lt;/span&gt;&lt;/font&gt;&lt;/p&gt;" style="verticalAlign=top;align=left;overflow=fill;html=1;whiteSpace=wrap;fontSize=11;" parent="1" vertex="1">
          <mxGeometry x="1300" y="790" width="170" height="103" as="geometry" />
        </mxCell>
        <mxCell id="Hspl0a5QFtU7OhwK5RxB-9" value="implements" style="edgeStyle=orthogonalEdgeStyle;rounded=0;orthogonalLoop=1;jettySize=auto;html=1;exitX=0.5;exitY=0;exitDx=0;exitDy=0;entryX=0.5;entryY=1;entryDx=0;entryDy=0;dashed=1;endArrow=blockThin;endFill=0;" parent="1" source="Hspl0a5QFtU7OhwK5RxB-10" target="Hspl0a5QFtU7OhwK5RxB-8" edge="1">
          <mxGeometry x="0.0143" relative="1" as="geometry">
            <mxPoint as="offset" />
          </mxGeometry>
        </mxCell>
        <mxCell id="bCesM1sb91vA8CNB5eqe-12" style="edgeStyle=orthogonalEdgeStyle;rounded=0;orthogonalLoop=1;jettySize=auto;html=1;exitX=0.75;exitY=1;exitDx=0;exitDy=0;entryX=1;entryY=0.5;entryDx=0;entryDy=0;" edge="1" parent="1" source="Hspl0a5QFtU7OhwK5RxB-10" target="Hspl0a5QFtU7OhwK5RxB-16">
          <mxGeometry relative="1" as="geometry">
            <mxPoint x="2070" y="1250" as="targetPoint" />
            <Array as="points">
              <mxPoint x="1440" y="1034" />
              <mxPoint x="1440" y="1130" />
              <mxPoint x="1950" y="1130" />
              <mxPoint x="1950" y="428" />
            </Array>
          </mxGeometry>
        </mxCell>
        <mxCell id="bCesM1sb91vA8CNB5eqe-13" value="loads" style="edgeLabel;html=1;align=center;verticalAlign=middle;resizable=0;points=[];" vertex="1" connectable="0" parent="bCesM1sb91vA8CNB5eqe-12">
          <mxGeometry x="0.4393" relative="1" as="geometry">
            <mxPoint as="offset" />
          </mxGeometry>
        </mxCell>
        <mxCell id="Hspl0a5QFtU7OhwK5RxB-10" value="&lt;p style=&quot;margin:0px;margin-top:4px;text-align:center;&quot;&gt;&lt;b&gt;&lt;font style=&quot;color: light-dark(rgb(0, 0, 0), rgb(255, 255, 255));&quot;&gt;FileProductManager&lt;/font&gt;&lt;/b&gt;&lt;/p&gt;&lt;hr style=&quot;border-style:solid;&quot;&gt;&lt;div style=&quot;height:2px;&quot;&gt;&lt;font style=&quot;color: light-dark(rgb(0, 0, 0), rgb(255, 255, 255)); font-size: 10px;&quot;&gt;&lt;span class=&quot;token&quot;&gt;-&lt;/span&gt; products&lt;span class=&quot;token&quot;&gt;:&lt;/span&gt; &lt;span class=&quot;token&quot;&gt;List&lt;/span&gt;&lt;span class=&quot;token generics&quot;&gt;&amp;lt;&lt;/span&gt;&lt;span class=&quot;token generics&quot;&gt;Product&lt;/span&gt;&lt;span class=&quot;token generics&quot;&gt;&amp;gt;&lt;/span&gt;&lt;br&gt;&lt;span class=&quot;token&quot;&gt;+&lt;/span&gt; &lt;span class=&quot;token&quot;&gt;loadFromFile&lt;/span&gt;&lt;span class=&quot;token&quot;&gt;(&lt;/span&gt;&lt;span class=&quot;token&quot;&gt;)&lt;/span&gt;&lt;span class=&quot;token&quot;&gt;:&lt;/span&gt; &lt;span class=&quot;token&quot;&gt;void&lt;/span&gt;&lt;br&gt;&lt;span class=&quot;token&quot;&gt;+&lt;/span&gt; &lt;span class=&quot;token&quot;&gt;loadProducts&lt;/span&gt;&lt;span class=&quot;token&quot;&gt;(&lt;/span&gt;&lt;span class=&quot;token&quot;&gt;)&lt;/span&gt;&lt;span class=&quot;token&quot;&gt;:&lt;/span&gt; &lt;span class=&quot;token&quot;&gt;List&lt;/span&gt;&lt;span class=&quot;token generics&quot;&gt;&amp;lt;&lt;/span&gt;&lt;span class=&quot;token generics&quot;&gt;Product&lt;/span&gt;&lt;span class=&quot;token generics&quot;&gt;&amp;gt;&lt;/span&gt;&lt;br&gt;&lt;span class=&quot;token&quot;&gt;+&lt;/span&gt; &lt;span class=&quot;token&quot;&gt;getProductById&lt;/span&gt;&lt;span class=&quot;token&quot;&gt;(&lt;/span&gt;id&lt;span class=&quot;token&quot;&gt;:&lt;/span&gt; &lt;span class=&quot;token&quot;&gt;String&lt;/span&gt;&lt;span class=&quot;token&quot;&gt;)&lt;/span&gt;&lt;span class=&quot;token&quot;&gt;:&lt;/span&gt; &lt;span class=&quot;token&quot;&gt;Product&lt;/span&gt;&lt;/font&gt;&lt;/div&gt;" style="verticalAlign=top;align=left;overflow=fill;html=1;whiteSpace=wrap;fontSize=11;" parent="1" vertex="1">
          <mxGeometry x="1300" y="936.5" width="171.5" height="97" as="geometry" />
        </mxCell>
        <mxCell id="Hspl0a5QFtU7OhwK5RxB-11" value="&lt;p style=&quot;margin:0px;margin-top:4px;text-align:center;&quot;&gt;&lt;font&gt;&lt;i style=&quot;&quot;&gt;&amp;lt;&amp;lt;Interface&amp;gt;&amp;gt;&lt;/i&gt;&lt;br&gt;&lt;b style=&quot;&quot;&gt;CartRepository&lt;/b&gt;&lt;/font&gt;&lt;/p&gt;&lt;hr style=&quot;border-style:solid;&quot;&gt;&lt;p style=&quot;margin:0px;margin-left:4px;&quot;&gt;&lt;font style=&quot;color: light-dark(rgb(0, 0, 0), rgb(255, 255, 255)); font-size: 10px;&quot;&gt;&lt;span class=&quot;token&quot;&gt;+&lt;/span&gt; &lt;span class=&quot;token&quot;&gt;saveCart&lt;/span&gt;&lt;span class=&quot;token&quot;&gt;(&lt;/span&gt;cart&lt;span class=&quot;token&quot;&gt;:&lt;/span&gt; &lt;span class=&quot;token&quot;&gt;Cart&lt;/span&gt;&lt;span class=&quot;token&quot;&gt;)&lt;/span&gt;&lt;span class=&quot;token&quot;&gt;:&lt;/span&gt; &lt;span class=&quot;token&quot;&gt;void&lt;/span&gt;&lt;br&gt;&lt;span class=&quot;token&quot;&gt;+&lt;/span&gt; &lt;span class=&quot;token&quot;&gt;getCart&lt;/span&gt;&lt;span class=&quot;token&quot;&gt;(&lt;/span&gt;&lt;span class=&quot;token&quot;&gt;)&lt;/span&gt;&lt;span class=&quot;token&quot;&gt;:&lt;/span&gt; &lt;span class=&quot;token&quot;&gt;Cart&lt;/span&gt;&lt;/font&gt;&lt;/p&gt;" style="verticalAlign=top;align=left;overflow=fill;html=1;whiteSpace=wrap;fontSize=11;" parent="1" vertex="1">
          <mxGeometry x="975" y="773" width="150" height="80" as="geometry" />
        </mxCell>
        <mxCell id="Hspl0a5QFtU7OhwK5RxB-12" value="implements" style="edgeStyle=orthogonalEdgeStyle;rounded=0;orthogonalLoop=1;jettySize=auto;html=1;exitX=0.5;exitY=0;exitDx=0;exitDy=0;entryX=0.5;entryY=1;entryDx=0;entryDy=0;dashed=1;endArrow=blockThin;endFill=0;" parent="1" source="Hspl0a5QFtU7OhwK5RxB-14" target="Hspl0a5QFtU7OhwK5RxB-11" edge="1">
          <mxGeometry relative="1" as="geometry" />
        </mxCell>
        <mxCell id="Hspl0a5QFtU7OhwK5RxB-13" value="manages" style="edgeStyle=orthogonalEdgeStyle;rounded=0;orthogonalLoop=1;jettySize=auto;html=1;exitX=0.5;exitY=1;exitDx=0;exitDy=0;entryX=0.5;entryY=1;entryDx=0;entryDy=0;" parent="1" source="Hspl0a5QFtU7OhwK5RxB-14" target="Hspl0a5QFtU7OhwK5RxB-20" edge="1">
          <mxGeometry x="-0.0256" relative="1" as="geometry">
            <Array as="points">
              <mxPoint x="1050" y="1120" />
              <mxPoint x="1830" y="1120" />
            </Array>
            <mxPoint x="-1" as="offset" />
          </mxGeometry>
        </mxCell>
        <mxCell id="Hspl0a5QFtU7OhwK5RxB-14" value="&lt;p style=&quot;margin:0px;margin-top:4px;text-align:center;&quot;&gt;&lt;b&gt;InMemoryCartManager&lt;/b&gt;&lt;/p&gt;&lt;hr style=&quot;border-style:solid;&quot;&gt;&lt;div style=&quot;height:2px;&quot;&gt;&lt;font style=&quot;color: light-dark(rgb(0, 0, 0), rgb(255, 255, 255)); font-size: 10px;&quot;&gt;&lt;span style=&quot;&quot; class=&quot;token&quot;&gt;-&lt;/span&gt; cart&lt;span style=&quot;&quot; class=&quot;token&quot;&gt;:&lt;/span&gt; &lt;span style=&quot;&quot; class=&quot;token&quot;&gt;Cart&lt;/span&gt;&lt;br&gt;&lt;span style=&quot;&quot; class=&quot;token&quot;&gt;+&lt;/span&gt; &lt;span style=&quot;&quot; class=&quot;token&quot;&gt;saveCart&lt;/span&gt;&lt;span style=&quot;&quot; class=&quot;token&quot;&gt;(&lt;/span&gt;cart&lt;span style=&quot;&quot; class=&quot;token&quot;&gt;:&lt;/span&gt; &lt;span style=&quot;&quot; class=&quot;token&quot;&gt;Cart&lt;/span&gt;&lt;span style=&quot;&quot; class=&quot;token&quot;&gt;)&lt;/span&gt;&lt;span style=&quot;&quot; class=&quot;token&quot;&gt;:&lt;/span&gt; &lt;span style=&quot;&quot; class=&quot;token&quot;&gt;void&lt;/span&gt;&lt;br&gt;&lt;span style=&quot;&quot; class=&quot;token&quot;&gt;+&lt;/span&gt; &lt;span style=&quot;&quot; class=&quot;token&quot;&gt;getCart&lt;/span&gt;&lt;span style=&quot;&quot; class=&quot;token&quot;&gt;(&lt;/span&gt;&lt;span style=&quot;&quot; class=&quot;token&quot;&gt;)&lt;/span&gt;&lt;span style=&quot;&quot; class=&quot;token&quot;&gt;:&lt;/span&gt; &lt;span style=&quot;&quot; class=&quot;token&quot;&gt;Cart&lt;/span&gt;&lt;/font&gt;&lt;/div&gt;" style="verticalAlign=top;align=left;overflow=fill;html=1;whiteSpace=wrap;fontSize=11;" parent="1" vertex="1">
          <mxGeometry x="975" y="933" width="150" height="80" as="geometry" />
        </mxCell>
        <mxCell id="Hspl0a5QFtU7OhwK5RxB-15" value="products.txt" style="whiteSpace=wrap;html=1;shape=mxgraph.basic.document;fontSize=11;" parent="1" vertex="1">
          <mxGeometry x="1340" y="1220" width="90" height="90" as="geometry" />
        </mxCell>
        <mxCell id="Hspl0a5QFtU7OhwK5RxB-16" value="&lt;p style=&quot;margin:0px;margin-top:4px;text-align:center;&quot;&gt;&lt;b&gt;Product&lt;/b&gt;&lt;/p&gt;&lt;hr style=&quot;border-style:solid;&quot;&gt;&lt;div style=&quot;height:2px;&quot;&gt;- id: Integer&lt;br&gt;- name: String&lt;br&gt;&lt;br&gt;&lt;/div&gt;&lt;div style=&quot;height:2px;&quot;&gt;&lt;br&gt;&lt;/div&gt;&lt;div style=&quot;height:2px;&quot;&gt;&lt;br&gt;&lt;/div&gt;&lt;div style=&quot;height:2px;&quot;&gt;&lt;br&gt;&lt;/div&gt;&lt;div style=&quot;height:2px;&quot;&gt;&lt;br&gt;&lt;/div&gt;&lt;div style=&quot;height:2px;&quot;&gt;&lt;br&gt;&lt;/div&gt;&lt;div style=&quot;height:2px;&quot;&gt;&lt;br&gt;&lt;/div&gt;&lt;div style=&quot;height:2px;&quot;&gt;&lt;br&gt;&lt;/div&gt;&lt;div style=&quot;height:2px;&quot;&gt;&lt;br&gt;&lt;/div&gt;&lt;div style=&quot;height:2px;&quot;&gt;&lt;br&gt;&lt;/div&gt;&lt;div style=&quot;height:2px;&quot;&gt;&lt;br&gt;&lt;/div&gt;&lt;div style=&quot;height:2px;&quot;&gt;&lt;br&gt;&lt;/div&gt;&lt;div style=&quot;height:2px;&quot;&gt;&lt;br&gt;&lt;/div&gt;&lt;div style=&quot;height:2px;&quot;&gt;&lt;br&gt;&lt;/div&gt;&lt;div style=&quot;height:2px;&quot;&gt;&lt;span style=&quot;background-color: transparent; color: light-dark(rgb(0, 0, 0), rgb(255, 255, 255));&quot;&gt;- category: String&lt;br&gt;- price: Double&lt;/span&gt;&lt;/div&gt;&lt;div style=&quot;height:2px;&quot;&gt;&lt;br&gt;&lt;/div&gt;&lt;div style=&quot;height:2px;&quot;&gt;&lt;br&gt;&lt;/div&gt;&lt;div style=&quot;height:2px;&quot;&gt;&lt;br&gt;&lt;/div&gt;&lt;div style=&quot;height:2px;&quot;&gt;&lt;br&gt;&lt;/div&gt;&lt;div style=&quot;height:2px;&quot;&gt;&lt;br&gt;&lt;/div&gt;&lt;div style=&quot;height:2px;&quot;&gt;&lt;br&gt;&lt;/div&gt;&lt;div style=&quot;height:2px;&quot;&gt;&lt;br&gt;&lt;/div&gt;&lt;div style=&quot;height:2px;&quot;&gt;&lt;br&gt;&lt;/div&gt;&lt;div style=&quot;height:2px;&quot;&gt;&lt;br&gt;&lt;/div&gt;&lt;div style=&quot;height:2px;&quot;&gt;&lt;br&gt;&lt;/div&gt;&lt;div style=&quot;height:2px;&quot;&gt;&lt;br&gt;&lt;/div&gt;&lt;div style=&quot;height:2px;&quot;&gt;&lt;br&gt;&lt;/div&gt;&lt;div style=&quot;height:2px;&quot;&gt;&lt;br&gt;&lt;/div&gt;&lt;div style=&quot;height:2px;&quot;&gt;&lt;br&gt;&lt;/div&gt;&lt;div style=&quot;height:2px;&quot;&gt;&lt;br&gt;&lt;/div&gt;&lt;div style=&quot;height:2px;&quot;&gt;&lt;br&gt;&lt;/div&gt;&lt;div style=&quot;height:2px;&quot;&gt;&lt;br&gt;&lt;/div&gt;&lt;div style=&quot;height:2px;&quot;&gt;&lt;br&gt;&lt;/div&gt;&lt;div style=&quot;height:2px;&quot;&gt;&lt;br&gt;&lt;/div&gt;&lt;hr style=&quot;border-style:solid;&quot;&gt;&lt;div style=&quot;height:2px;&quot;&gt;+ getters, setters&lt;br&gt;+ toString(): String&lt;/div&gt;&lt;div style=&quot;height:2px;&quot;&gt;&lt;br&gt;&lt;/div&gt;" style="verticalAlign=top;align=left;overflow=fill;html=1;whiteSpace=wrap;fontSize=11;" parent="1" vertex="1">
          <mxGeometry x="1780" y="358" width="140" height="140" as="geometry" />
        </mxCell>
        <mxCell id="Hspl0a5QFtU7OhwK5RxB-17" value="references" style="edgeStyle=orthogonalEdgeStyle;rounded=0;orthogonalLoop=1;jettySize=auto;html=1;exitX=0.5;exitY=0;exitDx=0;exitDy=0;entryX=0.5;entryY=1;entryDx=0;entryDy=0;" parent="1" source="Hspl0a5QFtU7OhwK5RxB-18" target="Hspl0a5QFtU7OhwK5RxB-16" edge="1">
          <mxGeometry relative="1" as="geometry" />
        </mxCell>
        <mxCell id="Hspl0a5QFtU7OhwK5RxB-18" value="&lt;p style=&quot;margin:0px;margin-top:4px;text-align:center;&quot;&gt;&lt;b&gt;CartItem&lt;/b&gt;&lt;/p&gt;&lt;hr style=&quot;border-style:solid;&quot;&gt;- product: Product&lt;br&gt;- quantity: Integer&lt;br&gt;- subtotal: Double&lt;div style=&quot;height:2px;&quot;&gt;&lt;br&gt;&lt;/div&gt;&lt;div style=&quot;height:2px;&quot;&gt;&lt;br&gt;&lt;/div&gt;&lt;div style=&quot;height:2px;&quot;&gt;&lt;br&gt;&lt;/div&gt;&lt;hr style=&quot;border-style:solid;&quot;&gt;&lt;div style=&quot;height:2px;&quot;&gt;+ calculateSubtotal(): Double&lt;br&gt;+ getters, setters&lt;br&gt;+ toString: String&lt;/div&gt;" style="verticalAlign=top;align=left;overflow=fill;html=1;whiteSpace=wrap;fontSize=11;" parent="1" vertex="1">
          <mxGeometry x="1774" y="530" width="152" height="140" as="geometry" />
        </mxCell>
        <mxCell id="Hspl0a5QFtU7OhwK5RxB-19" value="contains" style="edgeStyle=orthogonalEdgeStyle;rounded=0;orthogonalLoop=1;jettySize=auto;html=1;exitX=0;exitY=0;exitDx=0;exitDy=0;entryX=0;entryY=1;entryDx=0;entryDy=0;endArrow=diamondThin;endFill=1;" parent="1" source="Hspl0a5QFtU7OhwK5RxB-20" target="Hspl0a5QFtU7OhwK5RxB-18" edge="1">
          <mxGeometry relative="1" as="geometry">
            <Array as="points">
              <mxPoint x="1690" y="880" />
              <mxPoint x="1690" y="670" />
            </Array>
          </mxGeometry>
        </mxCell>
        <mxCell id="Hspl0a5QFtU7OhwK5RxB-20" value="&lt;p style=&quot;margin:0px;margin-top:4px;text-align:center;&quot;&gt;&lt;b&gt;Cart&lt;/b&gt;&lt;/p&gt;&lt;hr style=&quot;border-style:solid;&quot;&gt;&lt;div style=&quot;height:2px;&quot;&gt;- items: List&amp;lt;CartItem&amp;gt;&lt;br&gt;- totalAmount: Double&lt;/div&gt;&lt;div style=&quot;height:2px;&quot;&gt;&lt;br&gt;&lt;/div&gt;&lt;div style=&quot;height:2px;&quot;&gt;&lt;br&gt;&lt;/div&gt;&lt;div style=&quot;height:2px;&quot;&gt;&lt;br&gt;&lt;/div&gt;&lt;div style=&quot;height:2px;&quot;&gt;&lt;br&gt;&lt;/div&gt;&lt;div style=&quot;height:2px;&quot;&gt;&lt;br&gt;&lt;/div&gt;&lt;div style=&quot;height:2px;&quot;&gt;&lt;br&gt;&lt;/div&gt;&lt;div style=&quot;height:2px;&quot;&gt;&lt;br&gt;&lt;/div&gt;&lt;div style=&quot;height:2px;&quot;&gt;&lt;br&gt;&lt;/div&gt;&lt;div style=&quot;height:2px;&quot;&gt;&lt;br&gt;&lt;/div&gt;&lt;div style=&quot;height:2px;&quot;&gt;&lt;br&gt;&lt;/div&gt;&lt;div style=&quot;height:2px;&quot;&gt;&lt;br&gt;&lt;/div&gt;&lt;div style=&quot;height:2px;&quot;&gt;&lt;br&gt;&lt;/div&gt;&lt;div style=&quot;height:2px;&quot;&gt;&lt;br&gt;&lt;/div&gt;&lt;div style=&quot;height:2px;&quot;&gt;&lt;br&gt;&lt;/div&gt;&lt;hr style=&quot;border-style:solid;&quot;&gt;&lt;div style=&quot;height:2px;&quot;&gt;+ addItem(CartItem Item): void&lt;br&gt;+ removeItem(String ProductId): void&lt;br&gt;&lt;font style=&quot;color: light-dark(rgb(0, 0, 0), rgb(255, 255, 255));&quot;&gt;&lt;span style=&quot;&quot; class=&quot;token&quot;&gt;+&lt;/span&gt; &lt;span style=&quot;&quot; class=&quot;token&quot;&gt;updateItem&lt;/span&gt;&lt;span style=&quot;&quot; class=&quot;token&quot;&gt;(&lt;/span&gt;productId&lt;span style=&quot;&quot; class=&quot;token&quot;&gt;:&lt;/span&gt; &lt;span style=&quot;&quot; class=&quot;token&quot;&gt;String&lt;/span&gt;&lt;span style=&quot;&quot; class=&quot;token&quot;&gt;,&lt;/span&gt; quantity&lt;span style=&quot;&quot; class=&quot;token&quot;&gt;:&lt;/span&gt; &lt;span style=&quot;&quot; class=&quot;token&quot;&gt;Integer&lt;/span&gt;&lt;span style=&quot;&quot; class=&quot;token&quot;&gt;)&lt;/span&gt;&lt;span style=&quot;&quot; class=&quot;token&quot;&gt;:&lt;/span&gt; &lt;span style=&quot;&quot; class=&quot;token&quot;&gt;void&lt;/span&gt;&lt;/font&gt;&lt;br&gt;+ calculateTotal(): Double&lt;br&gt;+ clear(): void&lt;br&gt;&lt;font style=&quot;color: light-dark(rgb(0, 0, 0), rgb(255, 255, 255));&quot;&gt;&lt;span style=&quot;&quot; class=&quot;token&quot;&gt;+&lt;/span&gt; &lt;span style=&quot;&quot; class=&quot;token&quot;&gt;isEmpty&lt;/span&gt;&lt;span style=&quot;&quot; class=&quot;token&quot;&gt;(&lt;/span&gt;&lt;span style=&quot;&quot; class=&quot;token&quot;&gt;)&lt;/span&gt;&lt;span style=&quot;&quot; class=&quot;token&quot;&gt;:&lt;/span&gt; &lt;span style=&quot;&quot; class=&quot;token&quot;&gt;Boolean&lt;br&gt;&lt;/span&gt;&lt;/font&gt;+ getters&lt;br&gt;+ getItemCount(): Integer&lt;/div&gt;" style="verticalAlign=top;align=left;overflow=fill;html=1;whiteSpace=wrap;fontSize=11;" parent="1" vertex="1">
          <mxGeometry x="1730" y="880" width="200" height="210" as="geometry" />
        </mxCell>
        <mxCell id="Hspl0a5QFtU7OhwK5RxB-21" value="contains" style="edgeStyle=orthogonalEdgeStyle;rounded=0;orthogonalLoop=1;jettySize=auto;html=1;exitX=0.5;exitY=0;exitDx=0;exitDy=0;entryX=0.5;entryY=1;entryDx=0;entryDy=0;endArrow=diamondThin;endFill=1;" parent="1" source="Hspl0a5QFtU7OhwK5RxB-22" target="Hspl0a5QFtU7OhwK5RxB-18" edge="1">
          <mxGeometry relative="1" as="geometry" />
        </mxCell>
        <mxCell id="Hspl0a5QFtU7OhwK5RxB-22" value="&lt;p style=&quot;margin:0px;margin-top:4px;text-align:center;&quot;&gt;&lt;b&gt;Order&lt;/b&gt;&lt;/p&gt;&lt;hr style=&quot;border-style:solid;&quot;&gt;&lt;div style=&quot;height:2px;&quot;&gt;- orderId: String&lt;br&gt;- date: Date&lt;br&gt;- items: List&amp;lt;CartItem&amp;gt;&lt;br&gt;- subtotal: Double&lt;br&gt;- discount: Double&lt;br&gt;- finalTotal: Double&lt;br&gt;&lt;br&gt;+ getters, setters&lt;br&gt;+ toString&lt;br&gt;+ generateOrderId(): String&lt;br&gt;&lt;br&gt;&lt;br&gt;&lt;/div&gt;&lt;div style=&quot;height:2px;&quot;&gt;&lt;br&gt;&lt;/div&gt;&lt;div style=&quot;height:2px;&quot;&gt;&lt;br&gt;&lt;/div&gt;" style="verticalAlign=top;align=left;overflow=fill;html=1;whiteSpace=wrap;fontSize=11;" parent="1" vertex="1">
          <mxGeometry x="1774" y="700" width="152" height="170" as="geometry" />
        </mxCell>
        <mxCell id="Hspl0a5QFtU7OhwK5RxB-23" value="&lt;b&gt;&lt;font style=&quot;font-size: 10px;&quot;&gt;ShoppingCartUseCase&lt;/font&gt;&lt;/b&gt;" style="swimlane;fontStyle=1;align=center;verticalAlign=top;childLayout=stackLayout;horizontal=1;startSize=26;horizontalStack=0;resizeParent=1;resizeParentMax=0;resizeLast=0;collapsible=1;marginBottom=0;whiteSpace=wrap;html=1;" parent="1" vertex="1">
          <mxGeometry x="956" y="410" width="174" height="210" as="geometry">
            <mxRectangle x="990" y="430" width="97" height="26" as="alternateBounds" />
          </mxGeometry>
        </mxCell>
        <mxCell id="Hspl0a5QFtU7OhwK5RxB-24" value="&lt;font style=&quot;font-size: 10px;&quot;&gt;&lt;span class=&quot;token&quot;&gt;-&lt;/span&gt;&amp;nbsp;cartRepository&lt;span class=&quot;token&quot;&gt;:&lt;/span&gt;&amp;nbsp;&lt;span class=&quot;token&quot;&gt;CartRepository&lt;/span&gt;&lt;br&gt;&lt;span class=&quot;token&quot;&gt;-&lt;/span&gt;&amp;nbsp;productRepository&lt;span class=&quot;token&quot;&gt;:&lt;/span&gt;&lt;/font&gt;&lt;div&gt;&lt;font style=&quot;font-size: 10px;&quot;&gt;ProductRepository&lt;/font&gt;&lt;/div&gt;&lt;span style=&quot;font-size: 10px;&quot;&gt;&lt;/span&gt;" style="text;strokeColor=none;fillColor=none;align=left;verticalAlign=top;spacingLeft=4;spacingRight=4;overflow=hidden;rotatable=0;points=[[0,0.5],[1,0.5]];portConstraint=eastwest;whiteSpace=wrap;html=1;" parent="Hspl0a5QFtU7OhwK5RxB-23" vertex="1">
          <mxGeometry y="26" width="174" height="54" as="geometry" />
        </mxCell>
        <mxCell id="Hspl0a5QFtU7OhwK5RxB-25" value="" style="line;strokeWidth=1;fillColor=none;align=left;verticalAlign=middle;spacingTop=-1;spacingLeft=3;spacingRight=3;rotatable=0;labelPosition=right;points=[];portConstraint=eastwest;strokeColor=inherit;" parent="Hspl0a5QFtU7OhwK5RxB-23" vertex="1">
          <mxGeometry y="80" width="174" height="10" as="geometry" />
        </mxCell>
        <mxCell id="Hspl0a5QFtU7OhwK5RxB-26" value="&lt;div&gt;&lt;font style=&quot;font-size: 10px;&quot;&gt;&lt;span style=&quot;&quot; class=&quot;token&quot;&gt;+ addProductToCart(String productId, Integer quantity): void&lt;br&gt;+ updateQuantity(String productId, Integer&amp;nbsp;&lt;span style=&quot;font-size: 11px;&quot;&gt;quantity&lt;/span&gt;): void&lt;br&gt;+ removeItem(String productId): void&lt;br&gt;+ viewCart(): Cart&lt;br&gt;+ clearCart(): void&lt;/span&gt;&lt;/font&gt;&lt;/div&gt;" style="text;strokeColor=none;fillColor=none;align=left;verticalAlign=top;spacingLeft=4;spacingRight=4;overflow=hidden;rotatable=0;points=[[0,0.5],[1,0.5]];portConstraint=eastwest;whiteSpace=wrap;html=1;" parent="Hspl0a5QFtU7OhwK5RxB-23" vertex="1">
          <mxGeometry y="90" width="174" height="120" as="geometry" />
        </mxCell>
        <mxCell id="Hspl0a5QFtU7OhwK5RxB-27" value="uses" style="edgeStyle=orthogonalEdgeStyle;rounded=0;orthogonalLoop=1;jettySize=auto;html=1;exitX=0.5;exitY=0;exitDx=0;exitDy=0;entryX=1;entryY=0;entryDx=0;entryDy=0;" parent="1" source="Hspl0a5QFtU7OhwK5RxB-29" target="Hspl0a5QFtU7OhwK5RxB-11" edge="1">
          <mxGeometry relative="1" as="geometry">
            <Array as="points">
              <mxPoint x="1150" y="410" />
              <mxPoint x="1150" y="773" />
            </Array>
          </mxGeometry>
        </mxCell>
        <mxCell id="Hspl0a5QFtU7OhwK5RxB-28" value="uses" style="edgeStyle=orthogonalEdgeStyle;rounded=0;orthogonalLoop=1;jettySize=auto;html=1;exitX=0.5;exitY=1;exitDx=0;exitDy=0;entryX=0;entryY=0.25;entryDx=0;entryDy=0;dashed=1;" parent="1" source="Hspl0a5QFtU7OhwK5RxB-29" target="Hspl0a5QFtU7OhwK5RxB-20" edge="1">
          <mxGeometry relative="1" as="geometry">
            <Array as="points">
              <mxPoint x="1280" y="690" />
              <mxPoint x="1510" y="690" />
              <mxPoint x="1510" y="932" />
            </Array>
          </mxGeometry>
        </mxCell>
        <mxCell id="Hspl0a5QFtU7OhwK5RxB-29" value="&lt;b&gt;&lt;font style=&quot;font-size: 11px;&quot;&gt;OrderUseCase&lt;/font&gt;&lt;/b&gt;" style="swimlane;fontStyle=1;align=center;verticalAlign=top;childLayout=stackLayout;horizontal=1;startSize=26;horizontalStack=0;resizeParent=1;resizeParentMax=0;resizeLast=0;collapsible=1;marginBottom=0;whiteSpace=wrap;html=1;" parent="1" vertex="1">
          <mxGeometry x="1180" y="410" width="200" height="160" as="geometry">
            <mxRectangle x="1194.25" y="410" width="120" height="60" as="alternateBounds" />
          </mxGeometry>
        </mxCell>
        <mxCell id="Hspl0a5QFtU7OhwK5RxB-30" value="&lt;span style=&quot;font-size: 10px;&quot;&gt;- orderRepository&lt;/span&gt;&lt;span style=&quot;font-size: 10px;&quot; class=&quot;token&quot;&gt;:&lt;/span&gt;&lt;span style=&quot;font-size: 10px;&quot;&gt;&amp;nbsp;&lt;/span&gt;&lt;span style=&quot;font-size: 10px;&quot; class=&quot;token&quot;&gt;OrderRepository&lt;/span&gt;&lt;br style=&quot;font-size: 10px;&quot;&gt;&lt;span style=&quot;font-size: 10px;&quot; class=&quot;token&quot;&gt;-&lt;/span&gt;&lt;span style=&quot;font-size: 10px;&quot;&gt;&amp;nbsp;cartRepository&lt;/span&gt;&lt;span style=&quot;font-size: 10px;&quot; class=&quot;token&quot;&gt;:&lt;/span&gt;&lt;span style=&quot;font-size: 10px;&quot;&gt;&amp;nbsp;&lt;/span&gt;&lt;span style=&quot;font-size: 10px;&quot; class=&quot;token&quot;&gt;CartRepository&lt;/span&gt;" style="text;strokeColor=none;fillColor=none;align=left;verticalAlign=top;spacingLeft=4;spacingRight=4;overflow=hidden;rotatable=0;points=[[0,0.5],[1,0.5]];portConstraint=eastwest;whiteSpace=wrap;html=1;" parent="Hspl0a5QFtU7OhwK5RxB-29" vertex="1">
          <mxGeometry y="26" width="200" height="34" as="geometry" />
        </mxCell>
        <mxCell id="Hspl0a5QFtU7OhwK5RxB-31" value="" style="line;strokeWidth=1;fillColor=none;align=left;verticalAlign=middle;spacingTop=-1;spacingLeft=3;spacingRight=3;rotatable=0;labelPosition=right;points=[];portConstraint=eastwest;strokeColor=inherit;" parent="Hspl0a5QFtU7OhwK5RxB-29" vertex="1">
          <mxGeometry y="60" width="200" height="8" as="geometry" />
        </mxCell>
        <mxCell id="Hspl0a5QFtU7OhwK5RxB-32" value="&lt;font style=&quot;font-size: 10px;&quot;&gt;&lt;span style=&quot;&quot; class=&quot;token&quot;&gt;&lt;span class=&quot;token&quot;&gt;+&lt;/span&gt;&amp;nbsp;&lt;span class=&quot;token&quot;&gt;closeOrder&lt;/span&gt;&lt;span class=&quot;token&quot;&gt;(&lt;/span&gt;&lt;span class=&quot;token&quot;&gt;)&lt;/span&gt;&lt;span class=&quot;token&quot;&gt;:&lt;/span&gt;&amp;nbsp;&lt;span class=&quot;token&quot;&gt;Order&lt;/span&gt;&lt;br&gt;&lt;span class=&quot;token&quot;&gt;+&lt;/span&gt;&amp;nbsp;&lt;span class=&quot;token&quot;&gt;cancelOrder&lt;/span&gt;&lt;span class=&quot;token&quot;&gt;(&lt;/span&gt;&lt;span class=&quot;token&quot;&gt;)&lt;/span&gt;&lt;span class=&quot;token&quot;&gt;:&lt;/span&gt;&amp;nbsp;&lt;span class=&quot;token&quot;&gt;void&lt;/span&gt;&lt;br&gt;&lt;span class=&quot;token&quot;&gt;+&lt;/span&gt;&amp;nbsp;&lt;span class=&quot;token&quot;&gt;applyDiscount&lt;/span&gt;&lt;span class=&quot;token&quot;&gt;(&lt;/span&gt;amount&lt;span class=&quot;token&quot;&gt;:&lt;/span&gt;&amp;nbsp;&lt;span class=&quot;token&quot;&gt;Double&lt;/span&gt;&lt;span class=&quot;token&quot;&gt;)&lt;/span&gt;&lt;span class=&quot;token&quot;&gt;:&lt;/span&gt;&amp;nbsp;&lt;span class=&quot;token&quot;&gt;Double&lt;/span&gt;&lt;br&gt;&lt;span class=&quot;token&quot;&gt;+&lt;/span&gt;&amp;nbsp;&lt;span class=&quot;token&quot;&gt;calculateTotal&lt;/span&gt;&lt;span class=&quot;token&quot;&gt;(&lt;/span&gt;cart&lt;span class=&quot;token&quot;&gt;:&lt;/span&gt;&amp;nbsp;&lt;span class=&quot;token&quot;&gt;Cart&lt;/span&gt;&lt;span class=&quot;token&quot;&gt;)&lt;/span&gt;&lt;span class=&quot;token&quot;&gt;:&lt;/span&gt;&amp;nbsp;&lt;span class=&quot;token&quot;&gt;Double&lt;/span&gt;&lt;br&gt;&lt;span class=&quot;token&quot;&gt;+&lt;/span&gt;&amp;nbsp;&lt;span class=&quot;token&quot;&gt;validateCartNotEmpty&lt;/span&gt;&lt;span class=&quot;token&quot;&gt;(&lt;/span&gt;&lt;span class=&quot;token&quot;&gt;)&lt;/span&gt;&lt;span class=&quot;token&quot;&gt;:&lt;/span&gt;&amp;nbsp;&lt;span class=&quot;token&quot;&gt;Boolean&lt;/span&gt;&lt;/span&gt;&lt;/font&gt;" style="text;strokeColor=none;fillColor=none;align=left;verticalAlign=top;spacingLeft=4;spacingRight=4;overflow=hidden;rotatable=0;points=[[0,0.5],[1,0.5]];portConstraint=eastwest;whiteSpace=wrap;html=1;" parent="Hspl0a5QFtU7OhwK5RxB-29" vertex="1">
          <mxGeometry y="68" width="200" height="92" as="geometry" />
        </mxCell>
        <mxCell id="Hspl0a5QFtU7OhwK5RxB-38" value="Interacts" style="edgeStyle=orthogonalEdgeStyle;rounded=0;orthogonalLoop=1;jettySize=auto;html=1;entryX=0.5;entryY=0;entryDx=0;entryDy=0;" parent="1" edge="1">
          <mxGeometry relative="1" as="geometry">
            <mxPoint x="1273.91" y="110" as="sourcePoint" />
            <mxPoint x="1273.91" y="230" as="targetPoint" />
            <mxPoint as="offset" />
          </mxGeometry>
        </mxCell>
        <mxCell id="Hspl0a5QFtU7OhwK5RxB-39" value="User" style="shape=umlActor;verticalLabelPosition=bottom;verticalAlign=top;html=1;" parent="1" vertex="1">
          <mxGeometry x="1259.25" y="50" width="30" height="60" as="geometry" />
        </mxCell>
        <mxCell id="Hspl0a5QFtU7OhwK5RxB-40" value="uses" style="edgeStyle=orthogonalEdgeStyle;rounded=0;orthogonalLoop=1;jettySize=auto;html=1;exitX=0.5;exitY=1;exitDx=0;exitDy=0;" parent="1" source="Hspl0a5QFtU7OhwK5RxB-4" edge="1">
          <mxGeometry relative="1" as="geometry">
            <Array as="points">
              <mxPoint x="1274" y="330" />
              <mxPoint x="1487" y="330" />
            </Array>
            <mxPoint x="1487" y="410" as="targetPoint" />
          </mxGeometry>
        </mxCell>
        <mxCell id="Hspl0a5QFtU7OhwK5RxB-41" value="uses" style="edgeStyle=orthogonalEdgeStyle;rounded=0;orthogonalLoop=1;jettySize=auto;html=1;exitX=0.5;exitY=1;exitDx=0;exitDy=0;entryX=0.5;entryY=0;entryDx=0;entryDy=0;" parent="1" source="Hspl0a5QFtU7OhwK5RxB-4" target="Hspl0a5QFtU7OhwK5RxB-23" edge="1">
          <mxGeometry relative="1" as="geometry">
            <Array as="points">
              <mxPoint x="1274" y="330" />
              <mxPoint x="1036" y="330" />
            </Array>
          </mxGeometry>
        </mxCell>
        <mxCell id="Hspl0a5QFtU7OhwK5RxB-42" value="uses" style="edgeStyle=orthogonalEdgeStyle;rounded=0;orthogonalLoop=1;jettySize=auto;html=1;exitX=0.5;exitY=1;exitDx=0;exitDy=0;" parent="1" source="Hspl0a5QFtU7OhwK5RxB-4" target="Hspl0a5QFtU7OhwK5RxB-29" edge="1">
          <mxGeometry relative="1" as="geometry" />
        </mxCell>
        <mxCell id="Hspl0a5QFtU7OhwK5RxB-43" value="uses" style="edgeStyle=orthogonalEdgeStyle;rounded=0;orthogonalLoop=1;jettySize=auto;html=1;exitX=0;exitY=0.5;exitDx=0;exitDy=0;entryX=0.5;entryY=0;entryDx=0;entryDy=0;" parent="1" source="Hspl0a5QFtU7OhwK5RxB-26" target="Hspl0a5QFtU7OhwK5RxB-11" edge="1">
          <mxGeometry relative="1" as="geometry">
            <Array as="points">
              <mxPoint x="950" y="585" />
              <mxPoint x="950" y="680" />
              <mxPoint x="1050" y="680" />
            </Array>
          </mxGeometry>
        </mxCell>
        <mxCell id="Hspl0a5QFtU7OhwK5RxB-44" value="creates" style="edgeStyle=orthogonalEdgeStyle;rounded=0;orthogonalLoop=1;jettySize=auto;html=1;exitX=1;exitY=0;exitDx=0;exitDy=0;dashed=1;entryX=-0.015;entryY=0.176;entryDx=0;entryDy=0;entryPerimeter=0;" parent="1" source="Hspl0a5QFtU7OhwK5RxB-23" target="Hspl0a5QFtU7OhwK5RxB-16" edge="1">
          <mxGeometry relative="1" as="geometry">
            <Array as="points">
              <mxPoint x="1130" y="380" />
              <mxPoint x="1770" y="380" />
              <mxPoint x="1770" y="383" />
            </Array>
            <mxPoint x="1770" y="380" as="targetPoint" />
          </mxGeometry>
        </mxCell>
        <mxCell id="Hspl0a5QFtU7OhwK5RxB-45" value="creates" style="edgeStyle=orthogonalEdgeStyle;rounded=0;orthogonalLoop=1;jettySize=auto;html=1;exitX=1;exitY=0.5;exitDx=0;exitDy=0;entryX=0.012;entryY=0.397;entryDx=0;entryDy=0;entryPerimeter=0;dashed=1;" parent="1" source="Hspl0a5QFtU7OhwK5RxB-26" target="Hspl0a5QFtU7OhwK5RxB-18" edge="1">
          <mxGeometry x="-0.0008" relative="1" as="geometry">
            <Array as="points">
              <mxPoint x="1130" y="600" />
              <mxPoint x="1445" y="600" />
              <mxPoint x="1445" y="586" />
            </Array>
            <mxPoint as="offset" />
          </mxGeometry>
        </mxCell>
        <mxCell id="Hspl0a5QFtU7OhwK5RxB-46" value="creates" style="edgeStyle=orthogonalEdgeStyle;rounded=0;orthogonalLoop=1;jettySize=auto;html=1;exitX=1;exitY=0.5;exitDx=0;exitDy=0;dashed=1;" parent="1" source="Hspl0a5QFtU7OhwK5RxB-32" edge="1">
          <mxGeometry x="0.0014" relative="1" as="geometry">
            <Array as="points">
              <mxPoint x="1380" y="630" />
              <mxPoint x="1572" y="630" />
              <mxPoint x="1572" y="770" />
            </Array>
            <mxPoint as="offset" />
            <mxPoint x="1774" y="770" as="targetPoint" />
          </mxGeometry>
        </mxCell>
        <mxCell id="Hspl0a5QFtU7OhwK5RxB-47" value="retrieves" style="edgeStyle=orthogonalEdgeStyle;rounded=0;orthogonalLoop=1;jettySize=auto;html=1;entryX=0;entryY=0.5;entryDx=0;entryDy=0;dashed=1;exitX=0.989;exitY=0.734;exitDx=0;exitDy=0;exitPerimeter=0;" parent="1" source="bCesM1sb91vA8CNB5eqe-6" target="Hspl0a5QFtU7OhwK5RxB-16" edge="1">
          <mxGeometry relative="1" as="geometry">
            <mxPoint x="1613" y="460" as="sourcePoint" />
          </mxGeometry>
        </mxCell>
        <mxCell id="Hspl0a5QFtU7OhwK5RxB-49" value="reads from" style="edgeStyle=orthogonalEdgeStyle;rounded=0;orthogonalLoop=1;jettySize=auto;html=1;exitX=0.312;exitY=0.975;exitDx=0;exitDy=0;entryX=0.141;entryY=0.016;entryDx=0;entryDy=0;entryPerimeter=0;exitPerimeter=0;" parent="1" source="Hspl0a5QFtU7OhwK5RxB-10" target="Hspl0a5QFtU7OhwK5RxB-15" edge="1">
          <mxGeometry x="0.3543" y="1" relative="1" as="geometry">
            <mxPoint as="offset" />
          </mxGeometry>
        </mxCell>
        <mxCell id="Hspl0a5QFtU7OhwK5RxB-51" value="" style="endArrow=none;html=1;rounded=0;entryX=0.998;entryY=0.669;entryDx=0;entryDy=0;entryPerimeter=0;exitX=0;exitY=0.673;exitDx=0;exitDy=0;exitPerimeter=0;" parent="1" source="Hspl0a5QFtU7OhwK5RxB-22" target="Hspl0a5QFtU7OhwK5RxB-22" edge="1">
          <mxGeometry width="50" height="50" relative="1" as="geometry">
            <mxPoint x="1770" y="814" as="sourcePoint" />
            <mxPoint x="1926.2999999999997" y="790.9166666666667" as="targetPoint" />
            <Array as="points">
              <mxPoint x="1850" y="814" />
            </Array>
          </mxGeometry>
        </mxCell>
        <mxCell id="bCesM1sb91vA8CNB5eqe-9" value="uses" style="edgeStyle=orthogonalEdgeStyle;rounded=0;orthogonalLoop=1;jettySize=auto;html=1;entryX=0.5;entryY=0;entryDx=0;entryDy=0;" edge="1" parent="1" source="bCesM1sb91vA8CNB5eqe-5" target="Hspl0a5QFtU7OhwK5RxB-8">
          <mxGeometry x="0.5492" relative="1" as="geometry">
            <mxPoint as="offset" />
          </mxGeometry>
        </mxCell>
        <mxCell id="bCesM1sb91vA8CNB5eqe-5" value="&lt;b&gt;&lt;font style=&quot;font-size: 11px;&quot;&gt;ProductCatalogUseCase&lt;/font&gt;&lt;/b&gt;" style="swimlane;fontStyle=1;align=center;verticalAlign=top;childLayout=stackLayout;horizontal=1;startSize=26;horizontalStack=0;resizeParent=1;resizeParentMax=0;resizeLast=0;collapsible=1;marginBottom=0;whiteSpace=wrap;html=1;" vertex="1" parent="1">
          <mxGeometry x="1390" y="410" width="220" height="140" as="geometry" />
        </mxCell>
        <mxCell id="bCesM1sb91vA8CNB5eqe-6" value="&lt;font style=&quot;font-size: 10px;&quot;&gt;- productRepository: productRepository&lt;/font&gt;" style="text;strokeColor=none;fillColor=none;align=left;verticalAlign=top;spacingLeft=4;spacingRight=4;overflow=hidden;rotatable=0;points=[[0,0.5],[1,0.5]];portConstraint=eastwest;whiteSpace=wrap;html=1;" vertex="1" parent="bCesM1sb91vA8CNB5eqe-5">
          <mxGeometry y="26" width="220" height="34" as="geometry" />
        </mxCell>
        <mxCell id="bCesM1sb91vA8CNB5eqe-7" value="" style="line;strokeWidth=1;fillColor=none;align=left;verticalAlign=middle;spacingTop=-1;spacingLeft=3;spacingRight=3;rotatable=0;labelPosition=right;points=[];portConstraint=eastwest;strokeColor=inherit;" vertex="1" parent="bCesM1sb91vA8CNB5eqe-5">
          <mxGeometry y="60" width="220" height="8" as="geometry" />
        </mxCell>
        <mxCell id="bCesM1sb91vA8CNB5eqe-8" value="&lt;font style=&quot;font-size: 10px;&quot;&gt;+ getProductList(): List&amp;lt;Product&amp;gt;&lt;/font&gt;&lt;div&gt;&lt;font style=&quot;font-size: 10px;&quot;&gt;+ getProductById(id: String): Product&lt;/font&gt;&lt;/div&gt;&lt;div&gt;&lt;font style=&quot;font-size: 10px;&quot;&gt;+ getProductsByCategory(category: String): List&amp;lt;Product&amp;gt;&lt;/font&gt;&lt;/div&gt;" style="text;strokeColor=none;fillColor=none;align=left;verticalAlign=top;spacingLeft=4;spacingRight=4;overflow=hidden;rotatable=0;points=[[0,0.5],[1,0.5]];portConstraint=eastwest;whiteSpace=wrap;html=1;" vertex="1" parent="bCesM1sb91vA8CNB5eqe-5">
          <mxGeometry y="68" width="220" height="72" as="geometry" />
        </mxCell>
        <mxCell id="bCesM1sb91vA8CNB5eqe-14" value="&lt;p style=&quot;margin:0px;margin-top:4px;text-align:center;&quot;&gt;&lt;i&gt;&amp;lt;&amp;lt;Interface&amp;gt;&amp;gt;&lt;/i&gt;&lt;br&gt;&lt;b&gt;OrderRepository&lt;/b&gt;&lt;/p&gt;&lt;p style=&quot;margin:0px;margin-left:4px;&quot;&gt;&lt;br&gt;&lt;/p&gt;&lt;hr style=&quot;border-style:solid;&quot;&gt;&lt;p style=&quot;margin:0px;margin-left:4px;&quot;&gt;&lt;font style=&quot;color: light-dark(rgb(0, 0, 0), rgb(255, 255, 255)); font-size: 10px;&quot;&gt;&lt;span style=&quot;&quot; class=&quot;token&quot;&gt;+&lt;/span&gt;&amp;nbsp;saveOrder(order: Order): void&lt;br&gt;&lt;span style=&quot;&quot; class=&quot;token&quot;&gt;+&lt;/span&gt; &lt;span style=&quot;&quot; class=&quot;token&quot;&gt;getOrderById(orderId: String): Order&lt;/span&gt;&lt;/font&gt;&lt;/p&gt;" style="verticalAlign=top;align=left;overflow=fill;html=1;whiteSpace=wrap;fontSize=11;" vertex="1" parent="1">
          <mxGeometry x="1139.25" y="790" width="150" height="103" as="geometry" />
        </mxCell>
        <mxCell id="bCesM1sb91vA8CNB5eqe-16" value="implements" style="edgeStyle=orthogonalEdgeStyle;rounded=0;orthogonalLoop=1;jettySize=auto;html=1;entryX=0.5;entryY=1;entryDx=0;entryDy=0;endArrow=block;endFill=0;dashed=1;" edge="1" parent="1" source="bCesM1sb91vA8CNB5eqe-15" target="bCesM1sb91vA8CNB5eqe-14">
          <mxGeometry relative="1" as="geometry" />
        </mxCell>
        <mxCell id="bCesM1sb91vA8CNB5eqe-15" value="&lt;p style=&quot;margin:0px;margin-top:4px;text-align:center;&quot;&gt;&lt;b&gt;InMemoryOrderManager&lt;/b&gt;&lt;/p&gt;&lt;hr style=&quot;border-style:solid;&quot;&gt;&lt;div style=&quot;height:2px;&quot;&gt;&lt;font style=&quot;color: light-dark(rgb(0, 0, 0), rgb(255, 255, 255)); font-size: 10px;&quot;&gt;&lt;span style=&quot;&quot; class=&quot;token&quot;&gt;-&lt;/span&gt;&amp;nbsp;orders: Map&amp;lt;String, Order&amp;gt;&lt;br&gt;&lt;span class=&quot;token&quot;&gt;+&lt;/span&gt;&amp;nbsp;saveOrder(order: Order): void&lt;br&gt;&lt;span class=&quot;token&quot;&gt;+&lt;/span&gt;&amp;nbsp;&lt;span class=&quot;token&quot;&gt;getOrderById(orderId: String): Order&lt;/span&gt;&lt;/font&gt;&lt;/div&gt;" style="verticalAlign=top;align=left;overflow=fill;html=1;whiteSpace=wrap;fontSize=11;" vertex="1" parent="1">
          <mxGeometry x="1139.25" y="942.5" width="150" height="85" as="geometry" />
        </mxCell>
        <mxCell id="bCesM1sb91vA8CNB5eqe-17" value="uses" style="edgeStyle=orthogonalEdgeStyle;rounded=0;orthogonalLoop=1;jettySize=auto;html=1;exitX=0.174;exitY=1.002;exitDx=0;exitDy=0;exitPerimeter=0;" edge="1" parent="1" source="Hspl0a5QFtU7OhwK5RxB-32" target="bCesM1sb91vA8CNB5eqe-14">
          <mxGeometry relative="1" as="geometry" />
        </mxCell>
      </root>
    </mxGraphModel>
  </diagram>
</mxfile>
